<mxfile host="app.diagrams.net" modified="2023-10-23T16:47:15.009Z" agent="Mozilla/5.0 (Windows NT 10.0; Win64; x64) AppleWebKit/537.36 (KHTML, like Gecko) Chrome/118.0.0.0 Safari/537.36" etag="4DJSBSkx2OmOqdaU-Ecu" version="22.0.6" type="github">
  <diagram id="R2lEEEUBdFMjLlhIrx00" name="Page-1">
    <mxGraphModel dx="989" dy="545" grid="1" gridSize="10" guides="1" tooltips="1" connect="1" arrows="1" fold="1" page="1" pageScale="1" pageWidth="850" pageHeight="1100" math="0" shadow="0" extFonts="Permanent Marker^https://fonts.googleapis.com/css?family=Permanent+Marker">
      <root>
        <mxCell id="0" />
        <mxCell id="1" parent="0" />
        <mxCell id="QaK4S8mYorv3WEoBG_qT-6" value="Provinca" style="whiteSpace=wrap;html=1;align=center;" vertex="1" parent="1">
          <mxGeometry x="590" y="120" width="100" height="40" as="geometry" />
        </mxCell>
        <mxCell id="QaK4S8mYorv3WEoBG_qT-7" value="Camionero" style="whiteSpace=wrap;html=1;align=center;" vertex="1" parent="1">
          <mxGeometry x="180" y="200" width="100" height="40" as="geometry" />
        </mxCell>
        <mxCell id="QaK4S8mYorv3WEoBG_qT-16" style="edgeStyle=orthogonalEdgeStyle;rounded=0;orthogonalLoop=1;jettySize=auto;html=1;entryX=1;entryY=0.5;entryDx=0;entryDy=0;endArrow=none;endFill=0;" edge="1" parent="1" source="QaK4S8mYorv3WEoBG_qT-8" target="QaK4S8mYorv3WEoBG_qT-10">
          <mxGeometry relative="1" as="geometry" />
        </mxCell>
        <mxCell id="QaK4S8mYorv3WEoBG_qT-8" value="Paquete" style="whiteSpace=wrap;html=1;align=center;" vertex="1" parent="1">
          <mxGeometry x="590" y="385" width="100" height="40" as="geometry" />
        </mxCell>
        <mxCell id="QaK4S8mYorv3WEoBG_qT-15" style="edgeStyle=orthogonalEdgeStyle;rounded=0;orthogonalLoop=1;jettySize=auto;html=1;exitX=1;exitY=0.5;exitDx=0;exitDy=0;entryX=0;entryY=0.5;entryDx=0;entryDy=0;endArrow=none;endFill=0;" edge="1" parent="1" source="QaK4S8mYorv3WEoBG_qT-9" target="QaK4S8mYorv3WEoBG_qT-10">
          <mxGeometry relative="1" as="geometry" />
        </mxCell>
        <mxCell id="QaK4S8mYorv3WEoBG_qT-9" value="Camion" style="whiteSpace=wrap;html=1;align=center;" vertex="1" parent="1">
          <mxGeometry x="180" y="385" width="100" height="40" as="geometry" />
        </mxCell>
        <mxCell id="QaK4S8mYorv3WEoBG_qT-17" value="" style="group" vertex="1" connectable="0" parent="1">
          <mxGeometry x="380" y="345" width="120" height="90" as="geometry" />
        </mxCell>
        <mxCell id="QaK4S8mYorv3WEoBG_qT-10" value="Distribuir" style="shape=rhombus;perimeter=rhombusPerimeter;whiteSpace=wrap;html=1;align=center;" vertex="1" parent="QaK4S8mYorv3WEoBG_qT-17">
          <mxGeometry y="30" width="120" height="60" as="geometry" />
        </mxCell>
        <mxCell id="QaK4S8mYorv3WEoBG_qT-13" value="&lt;b&gt;1:M&lt;/b&gt;" style="text;html=1;strokeColor=none;fillColor=none;align=center;verticalAlign=middle;whiteSpace=wrap;rounded=0;" vertex="1" parent="QaK4S8mYorv3WEoBG_qT-17">
          <mxGeometry x="30" width="60" height="30" as="geometry" />
        </mxCell>
        <mxCell id="QaK4S8mYorv3WEoBG_qT-38" value="" style="group" vertex="1" connectable="0" parent="1">
          <mxGeometry x="580" y="250" width="170" height="60" as="geometry" />
        </mxCell>
        <mxCell id="QaK4S8mYorv3WEoBG_qT-35" value="Llegar" style="shape=rhombus;perimeter=rhombusPerimeter;whiteSpace=wrap;html=1;align=center;" vertex="1" parent="QaK4S8mYorv3WEoBG_qT-38">
          <mxGeometry width="120" height="60" as="geometry" />
        </mxCell>
        <mxCell id="QaK4S8mYorv3WEoBG_qT-37" value="&lt;b&gt;1:M&lt;/b&gt;" style="text;strokeColor=none;fillColor=none;spacingLeft=4;spacingRight=4;overflow=hidden;rotatable=0;points=[[0,0.5],[1,0.5]];portConstraint=eastwest;fontSize=12;whiteSpace=wrap;html=1;" vertex="1" parent="QaK4S8mYorv3WEoBG_qT-38">
          <mxGeometry x="130" y="15" width="40" height="30" as="geometry" />
        </mxCell>
        <mxCell id="QaK4S8mYorv3WEoBG_qT-39" style="edgeStyle=orthogonalEdgeStyle;rounded=0;orthogonalLoop=1;jettySize=auto;html=1;exitX=0.5;exitY=0;exitDx=0;exitDy=0;entryX=0.5;entryY=1;entryDx=0;entryDy=0;endArrow=none;endFill=0;" edge="1" parent="1" source="QaK4S8mYorv3WEoBG_qT-35" target="QaK4S8mYorv3WEoBG_qT-6">
          <mxGeometry relative="1" as="geometry" />
        </mxCell>
        <mxCell id="QaK4S8mYorv3WEoBG_qT-40" style="edgeStyle=orthogonalEdgeStyle;rounded=0;orthogonalLoop=1;jettySize=auto;html=1;exitX=0.5;exitY=1;exitDx=0;exitDy=0;entryX=0.5;entryY=0;entryDx=0;entryDy=0;endArrow=none;endFill=0;" edge="1" parent="1" source="QaK4S8mYorv3WEoBG_qT-35" target="QaK4S8mYorv3WEoBG_qT-8">
          <mxGeometry relative="1" as="geometry" />
        </mxCell>
        <mxCell id="QaK4S8mYorv3WEoBG_qT-43" value="" style="group" vertex="1" connectable="0" parent="1">
          <mxGeometry x="130" y="280" width="160" height="60" as="geometry" />
        </mxCell>
        <mxCell id="QaK4S8mYorv3WEoBG_qT-41" value="Manejar" style="shape=rhombus;perimeter=rhombusPerimeter;whiteSpace=wrap;html=1;align=center;" vertex="1" parent="QaK4S8mYorv3WEoBG_qT-43">
          <mxGeometry x="40" width="120" height="60" as="geometry" />
        </mxCell>
        <mxCell id="QaK4S8mYorv3WEoBG_qT-42" value="&lt;b&gt;M:N&lt;/b&gt;" style="text;strokeColor=none;fillColor=none;spacingLeft=4;spacingRight=4;overflow=hidden;rotatable=0;points=[[0,0.5],[1,0.5]];portConstraint=eastwest;fontSize=12;whiteSpace=wrap;html=1;" vertex="1" parent="QaK4S8mYorv3WEoBG_qT-43">
          <mxGeometry y="15" width="40" height="30" as="geometry" />
        </mxCell>
        <mxCell id="QaK4S8mYorv3WEoBG_qT-44" style="edgeStyle=orthogonalEdgeStyle;rounded=0;orthogonalLoop=1;jettySize=auto;html=1;exitX=0.5;exitY=0;exitDx=0;exitDy=0;entryX=0.5;entryY=1;entryDx=0;entryDy=0;endArrow=none;endFill=0;" edge="1" parent="1" source="QaK4S8mYorv3WEoBG_qT-41" target="QaK4S8mYorv3WEoBG_qT-7">
          <mxGeometry relative="1" as="geometry" />
        </mxCell>
        <mxCell id="QaK4S8mYorv3WEoBG_qT-45" style="edgeStyle=orthogonalEdgeStyle;rounded=0;orthogonalLoop=1;jettySize=auto;html=1;exitX=0.5;exitY=1;exitDx=0;exitDy=0;entryX=0.5;entryY=0;entryDx=0;entryDy=0;endArrow=none;endFill=0;" edge="1" parent="1" source="QaK4S8mYorv3WEoBG_qT-41" target="QaK4S8mYorv3WEoBG_qT-9">
          <mxGeometry relative="1" as="geometry" />
        </mxCell>
        <mxCell id="QaK4S8mYorv3WEoBG_qT-47" value="&lt;font color=&quot;#331cff&quot;&gt;0:M&lt;/font&gt;" style="text;html=1;strokeColor=none;fillColor=none;align=center;verticalAlign=middle;whiteSpace=wrap;rounded=0;" vertex="1" parent="1">
          <mxGeometry x="170" y="355" width="60" height="30" as="geometry" />
        </mxCell>
        <mxCell id="QaK4S8mYorv3WEoBG_qT-48" value="&lt;font color=&quot;#331cff&quot;&gt;0:M&lt;/font&gt;" style="text;html=1;strokeColor=none;fillColor=none;align=center;verticalAlign=middle;whiteSpace=wrap;rounded=0;" vertex="1" parent="1">
          <mxGeometry x="170" y="240" width="60" height="30" as="geometry" />
        </mxCell>
        <mxCell id="QaK4S8mYorv3WEoBG_qT-49" value="&lt;font color=&quot;#331cff&quot;&gt;1:1&lt;/font&gt;" style="text;html=1;strokeColor=none;fillColor=none;align=center;verticalAlign=middle;whiteSpace=wrap;rounded=0;" vertex="1" parent="1">
          <mxGeometry x="280" y="375" width="60" height="30" as="geometry" />
        </mxCell>
        <mxCell id="QaK4S8mYorv3WEoBG_qT-50" value="&lt;font color=&quot;#331cff&quot;&gt;1:M&lt;/font&gt;" style="text;html=1;strokeColor=none;fillColor=none;align=center;verticalAlign=middle;whiteSpace=wrap;rounded=0;" vertex="1" parent="1">
          <mxGeometry x="530" y="375" width="60" height="30" as="geometry" />
        </mxCell>
        <mxCell id="QaK4S8mYorv3WEoBG_qT-51" value="&lt;font color=&quot;#331cff&quot;&gt;0:M&lt;/font&gt;" style="text;html=1;strokeColor=none;fillColor=none;align=center;verticalAlign=middle;whiteSpace=wrap;rounded=0;" vertex="1" parent="1">
          <mxGeometry x="640" y="355" width="60" height="30" as="geometry" />
        </mxCell>
        <mxCell id="QaK4S8mYorv3WEoBG_qT-52" value="&lt;font color=&quot;#331cff&quot;&gt;1:1&lt;/font&gt;" style="text;html=1;strokeColor=none;fillColor=none;align=center;verticalAlign=middle;whiteSpace=wrap;rounded=0;" vertex="1" parent="1">
          <mxGeometry x="640" y="160" width="60" height="30" as="geometry" />
        </mxCell>
        <mxCell id="QaK4S8mYorv3WEoBG_qT-59" style="rounded=0;orthogonalLoop=1;jettySize=auto;html=1;exitX=1;exitY=0.5;exitDx=0;exitDy=0;entryX=0;entryY=0.5;entryDx=0;entryDy=0;endArrow=none;endFill=0;entryPerimeter=0;" edge="1" parent="1" source="QaK4S8mYorv3WEoBG_qT-53" target="QaK4S8mYorv3WEoBG_qT-7">
          <mxGeometry relative="1" as="geometry" />
        </mxCell>
        <mxCell id="QaK4S8mYorv3WEoBG_qT-53" value="DNI" style="ellipse;whiteSpace=wrap;html=1;align=center;fontStyle=4;" vertex="1" parent="1">
          <mxGeometry x="20" y="180" width="100" height="40" as="geometry" />
        </mxCell>
        <mxCell id="QaK4S8mYorv3WEoBG_qT-62" style="edgeStyle=none;rounded=0;orthogonalLoop=1;jettySize=auto;html=1;exitX=0.74;exitY=0.067;exitDx=0;exitDy=0;endArrow=none;endFill=0;exitPerimeter=0;entryX=0.186;entryY=0.03;entryDx=0;entryDy=0;entryPerimeter=0;" edge="1" parent="1" source="QaK4S8mYorv3WEoBG_qT-54" target="QaK4S8mYorv3WEoBG_qT-7">
          <mxGeometry relative="1" as="geometry" />
        </mxCell>
        <mxCell id="QaK4S8mYorv3WEoBG_qT-54" value="DirecciÃ³n" style="ellipse;whiteSpace=wrap;html=1;align=center;" vertex="1" parent="1">
          <mxGeometry x="100" y="90" width="100" height="40" as="geometry" />
        </mxCell>
        <mxCell id="QaK4S8mYorv3WEoBG_qT-63" style="edgeStyle=none;rounded=0;orthogonalLoop=1;jettySize=auto;html=1;exitX=0.5;exitY=0;exitDx=0;exitDy=0;endArrow=none;endFill=0;" edge="1" parent="1" source="QaK4S8mYorv3WEoBG_qT-55" target="QaK4S8mYorv3WEoBG_qT-7">
          <mxGeometry relative="1" as="geometry">
            <mxPoint x="230" y="430" as="targetPoint" />
          </mxGeometry>
        </mxCell>
        <mxCell id="QaK4S8mYorv3WEoBG_qT-55" value="TelÃ©fono" style="ellipse;whiteSpace=wrap;html=1;align=center;" vertex="1" parent="1">
          <mxGeometry x="210" y="90" width="100" height="40" as="geometry" />
        </mxCell>
        <mxCell id="QaK4S8mYorv3WEoBG_qT-60" style="rounded=0;orthogonalLoop=1;jettySize=auto;html=1;exitX=0.99;exitY=0.383;exitDx=0;exitDy=0;endArrow=none;endFill=0;exitPerimeter=0;entryX=0;entryY=0;entryDx=0;entryDy=0;" edge="1" parent="1" source="QaK4S8mYorv3WEoBG_qT-56" target="QaK4S8mYorv3WEoBG_qT-7">
          <mxGeometry relative="1" as="geometry" />
        </mxCell>
        <mxCell id="QaK4S8mYorv3WEoBG_qT-56" value="Nombre" style="ellipse;whiteSpace=wrap;html=1;align=center;" vertex="1" parent="1">
          <mxGeometry x="30" y="130" width="100" height="40" as="geometry" />
        </mxCell>
        <mxCell id="QaK4S8mYorv3WEoBG_qT-75" style="edgeStyle=none;rounded=0;orthogonalLoop=1;jettySize=auto;html=1;exitX=0.5;exitY=0;exitDx=0;exitDy=0;entryX=0;entryY=0.75;entryDx=0;entryDy=0;endArrow=none;endFill=0;" edge="1" parent="1" source="QaK4S8mYorv3WEoBG_qT-58" target="QaK4S8mYorv3WEoBG_qT-8">
          <mxGeometry relative="1" as="geometry" />
        </mxCell>
        <mxCell id="QaK4S8mYorv3WEoBG_qT-58" value="Id" style="ellipse;whiteSpace=wrap;html=1;align=center;fontStyle=4;" vertex="1" parent="1">
          <mxGeometry x="490" y="435" width="100" height="40" as="geometry" />
        </mxCell>
        <mxCell id="QaK4S8mYorv3WEoBG_qT-67" style="edgeStyle=none;rounded=0;orthogonalLoop=1;jettySize=auto;html=1;exitX=0;exitY=0;exitDx=0;exitDy=0;endArrow=none;endFill=0;" edge="1" parent="1" source="QaK4S8mYorv3WEoBG_qT-64" target="QaK4S8mYorv3WEoBG_qT-7">
          <mxGeometry relative="1" as="geometry" />
        </mxCell>
        <mxCell id="QaK4S8mYorv3WEoBG_qT-64" value="Salario" style="ellipse;whiteSpace=wrap;html=1;align=center;" vertex="1" parent="1">
          <mxGeometry x="320" y="110" width="100" height="40" as="geometry" />
        </mxCell>
        <mxCell id="QaK4S8mYorv3WEoBG_qT-68" style="edgeStyle=none;rounded=0;orthogonalLoop=1;jettySize=auto;html=1;exitX=0;exitY=1;exitDx=0;exitDy=0;endArrow=none;endFill=0;" edge="1" parent="1" source="QaK4S8mYorv3WEoBG_qT-66" target="QaK4S8mYorv3WEoBG_qT-7">
          <mxGeometry relative="1" as="geometry" />
        </mxCell>
        <mxCell id="QaK4S8mYorv3WEoBG_qT-66" value="PoblaciÃ³n" style="ellipse;whiteSpace=wrap;html=1;align=center;" vertex="1" parent="1">
          <mxGeometry x="300" y="160" width="100" height="40" as="geometry" />
        </mxCell>
        <mxCell id="QaK4S8mYorv3WEoBG_qT-69" value="Fecha" style="ellipse;whiteSpace=wrap;html=1;align=center;" vertex="1" parent="1">
          <mxGeometry x="330" y="290" width="100" height="40" as="geometry" />
        </mxCell>
        <mxCell id="QaK4S8mYorv3WEoBG_qT-70" style="edgeStyle=none;rounded=0;orthogonalLoop=1;jettySize=auto;html=1;exitX=1;exitY=0.5;exitDx=0;exitDy=0;endArrow=none;endFill=0;" edge="1" parent="1" source="QaK4S8mYorv3WEoBG_qT-41" target="QaK4S8mYorv3WEoBG_qT-69">
          <mxGeometry relative="1" as="geometry" />
        </mxCell>
        <mxCell id="QaK4S8mYorv3WEoBG_qT-77" style="edgeStyle=none;rounded=0;orthogonalLoop=1;jettySize=auto;html=1;exitX=0;exitY=0;exitDx=0;exitDy=0;endArrow=none;endFill=0;" edge="1" parent="1" source="QaK4S8mYorv3WEoBG_qT-72" target="QaK4S8mYorv3WEoBG_qT-8">
          <mxGeometry relative="1" as="geometry" />
        </mxCell>
        <mxCell id="QaK4S8mYorv3WEoBG_qT-72" value="Destinatario" style="ellipse;whiteSpace=wrap;html=1;align=center;" vertex="1" parent="1">
          <mxGeometry x="680" y="460" width="100" height="40" as="geometry" />
        </mxCell>
        <mxCell id="QaK4S8mYorv3WEoBG_qT-76" style="edgeStyle=none;rounded=0;orthogonalLoop=1;jettySize=auto;html=1;exitX=0.5;exitY=0;exitDx=0;exitDy=0;endArrow=none;endFill=0;" edge="1" parent="1" source="QaK4S8mYorv3WEoBG_qT-73" target="QaK4S8mYorv3WEoBG_qT-8">
          <mxGeometry relative="1" as="geometry" />
        </mxCell>
        <mxCell id="QaK4S8mYorv3WEoBG_qT-73" value="DescripciÃ³n" style="ellipse;whiteSpace=wrap;html=1;align=center;" vertex="1" parent="1">
          <mxGeometry x="570" y="470" width="100" height="40" as="geometry" />
        </mxCell>
        <mxCell id="QaK4S8mYorv3WEoBG_qT-78" style="edgeStyle=none;rounded=0;orthogonalLoop=1;jettySize=auto;html=1;exitX=0;exitY=0.5;exitDx=0;exitDy=0;endArrow=none;endFill=0;" edge="1" parent="1" source="QaK4S8mYorv3WEoBG_qT-74" target="QaK4S8mYorv3WEoBG_qT-8">
          <mxGeometry relative="1" as="geometry" />
        </mxCell>
        <mxCell id="QaK4S8mYorv3WEoBG_qT-74" value="DirecciÃ³n Dest." style="ellipse;whiteSpace=wrap;html=1;align=center;" vertex="1" parent="1">
          <mxGeometry x="710" y="405" width="100" height="40" as="geometry" />
        </mxCell>
        <mxCell id="QaK4S8mYorv3WEoBG_qT-81" style="edgeStyle=none;rounded=0;orthogonalLoop=1;jettySize=auto;html=1;exitX=0.5;exitY=1;exitDx=0;exitDy=0;endArrow=none;endFill=0;" edge="1" parent="1" source="QaK4S8mYorv3WEoBG_qT-79" target="QaK4S8mYorv3WEoBG_qT-6">
          <mxGeometry relative="1" as="geometry" />
        </mxCell>
        <mxCell id="QaK4S8mYorv3WEoBG_qT-79" value="Codigo" style="ellipse;whiteSpace=wrap;html=1;align=center;fontStyle=4;" vertex="1" parent="1">
          <mxGeometry x="520" y="40" width="100" height="40" as="geometry" />
        </mxCell>
        <mxCell id="QaK4S8mYorv3WEoBG_qT-82" style="edgeStyle=none;rounded=0;orthogonalLoop=1;jettySize=auto;html=1;exitX=0.5;exitY=1;exitDx=0;exitDy=0;endArrow=none;endFill=0;" edge="1" parent="1" source="QaK4S8mYorv3WEoBG_qT-80" target="QaK4S8mYorv3WEoBG_qT-6">
          <mxGeometry relative="1" as="geometry" />
        </mxCell>
        <mxCell id="QaK4S8mYorv3WEoBG_qT-80" value="Nombre" style="ellipse;whiteSpace=wrap;html=1;align=center;" vertex="1" parent="1">
          <mxGeometry x="660" y="40" width="100" height="40" as="geometry" />
        </mxCell>
        <mxCell id="QaK4S8mYorv3WEoBG_qT-87" style="edgeStyle=none;rounded=0;orthogonalLoop=1;jettySize=auto;html=1;exitX=1;exitY=0.5;exitDx=0;exitDy=0;endArrow=none;endFill=0;" edge="1" parent="1" source="QaK4S8mYorv3WEoBG_qT-83" target="QaK4S8mYorv3WEoBG_qT-9">
          <mxGeometry relative="1" as="geometry" />
        </mxCell>
        <mxCell id="QaK4S8mYorv3WEoBG_qT-83" value="MatrÃ­cula" style="ellipse;whiteSpace=wrap;html=1;align=center;fontStyle=4;" vertex="1" parent="1">
          <mxGeometry x="30" y="385" width="100" height="40" as="geometry" />
        </mxCell>
        <mxCell id="QaK4S8mYorv3WEoBG_qT-88" style="edgeStyle=none;rounded=0;orthogonalLoop=1;jettySize=auto;html=1;exitX=1;exitY=0;exitDx=0;exitDy=0;endArrow=none;endFill=0;" edge="1" parent="1" source="QaK4S8mYorv3WEoBG_qT-84" target="QaK4S8mYorv3WEoBG_qT-9">
          <mxGeometry relative="1" as="geometry" />
        </mxCell>
        <mxCell id="QaK4S8mYorv3WEoBG_qT-84" value="Modelo" style="ellipse;whiteSpace=wrap;html=1;align=center;" vertex="1" parent="1">
          <mxGeometry x="80" y="445" width="100" height="40" as="geometry" />
        </mxCell>
        <mxCell id="QaK4S8mYorv3WEoBG_qT-89" style="edgeStyle=none;rounded=0;orthogonalLoop=1;jettySize=auto;html=1;exitX=0.5;exitY=0;exitDx=0;exitDy=0;endArrow=none;endFill=0;" edge="1" parent="1" source="QaK4S8mYorv3WEoBG_qT-85" target="QaK4S8mYorv3WEoBG_qT-9">
          <mxGeometry relative="1" as="geometry" />
        </mxCell>
        <mxCell id="QaK4S8mYorv3WEoBG_qT-85" value="Tipo" style="ellipse;whiteSpace=wrap;html=1;align=center;" vertex="1" parent="1">
          <mxGeometry x="180" y="460" width="100" height="40" as="geometry" />
        </mxCell>
        <mxCell id="QaK4S8mYorv3WEoBG_qT-90" style="edgeStyle=none;rounded=0;orthogonalLoop=1;jettySize=auto;html=1;exitX=0;exitY=0;exitDx=0;exitDy=0;endArrow=none;endFill=0;" edge="1" parent="1" source="QaK4S8mYorv3WEoBG_qT-86" target="QaK4S8mYorv3WEoBG_qT-9">
          <mxGeometry relative="1" as="geometry" />
        </mxCell>
        <mxCell id="QaK4S8mYorv3WEoBG_qT-86" value="Potencia" style="ellipse;whiteSpace=wrap;html=1;align=center;" vertex="1" parent="1">
          <mxGeometry x="290" y="435" width="100" height="40" as="geometry" />
        </mxCell>
      </root>
    </mxGraphModel>
  </diagram>
</mxfile>
